<?xml version="1.0" encoding="utf-8"?>
<!-- Generator: Adobe Illustrator 21.1.0, SVG Export Plug-In . SVG Version: 6.00 Build 0)  -->
<svg version="1.1" xmlns="http://www.w3.org/2000/svg" xmlns:xlink="http://www.w3.org/1999/xlink" x="0px" y="0px"
	 viewBox="0 0 182.3 180.6" style="enable-background:new 0 0 182.3 180.6;" xml:space="preserve">
<style type="text/css">
	.st0{fill:#E20074;}
	.st1{opacity:0.3;fill:#FFFFFF;}
</style>
<g id="BG">
</g>
<g id="Object">
	<g>
		<path class="st0" d="M98.7,0C44.2,0,0,44.2,0,98.7v82.9h82.9c54.5,0,98.7-44.2,98.7-98.7V0H98.7z M132.5,104.4h-28.1v28.1v0H77.3
			v-28.1H49.1V77.3h28.1V49.1h27.2l0,28.1h28.1V104.4z"/>
		<path class="st1" d="M0,98.7v82.9h0l77.3-77.3v0H49.1V77.3h28.1V49.1h27.2l0,28.1L181.7,0v0H98.7C44.2,0,0,44.2,0,98.7z"/>
	</g>
</g>
</svg>
